<mxfile host="drawio-plugin" modified="2021-11-03T16:54:21.097Z" agent="5.0 (X11; Linux x86_64) AppleWebKit/537.36 (KHTML, like Gecko) Chrome/87.0.4280.141 Safari/537.36" version="14.7.4" etag="2L8IeZx4sjRRtQ-iQrGn" type="embed" pages="2"><diagram id="IywrCHisbzH1nh_2yLqh" name="login"><mxGraphModel dx="400" dy="720" grid="1" gridSize="10" guides="1" tooltips="1" connect="1" arrows="1" fold="1" page="1" pageScale="1" pageWidth="850" pageHeight="1100" math="0" shadow="0"><root><mxCell id="0"/><mxCell id="1" parent="0"/><mxCell id="2" value="Login form" style="rounded=0;whiteSpace=wrap;html=1;fillColor=#dae8fc;strokeColor=#6c8ebf;" vertex="1" parent="1"><mxGeometry x="295" y="40" width="170" height="60" as="geometry"/></mxCell><mxCell id="3" value="Email address" style="rounded=0;whiteSpace=wrap;html=1;fillColor=#d5e8d4;strokeColor=#82b366;" vertex="1" parent="1"><mxGeometry x="320" y="110" width="120" height="60" as="geometry"/></mxCell><mxCell id="4" value="Password" style="rounded=0;whiteSpace=wrap;html=1;fillColor=#e1d5e7;strokeColor=#9673a6;" vertex="1" parent="1"><mxGeometry x="320" y="180" width="120" height="60" as="geometry"/></mxCell><mxCell id="5" value="Forgot password" style="rounded=0;whiteSpace=wrap;html=1;fillColor=#d0cee2;strokeColor=#56517e;" vertex="1" parent="1"><mxGeometry x="320" y="260" width="120" height="60" as="geometry"/></mxCell><mxCell id="6" value="Login" style="rounded=0;whiteSpace=wrap;html=1;fillColor=#f5f5f5;strokeColor=#666666;fontColor=#333333;" vertex="1" parent="1"><mxGeometry x="320" y="340" width="120" height="30" as="geometry"/></mxCell></root></mxGraphModel></diagram><diagram id="aIdipHM63_PqMYS-VYHA" name="register"><mxGraphModel dx="400" dy="720" grid="1" gridSize="10" guides="1" tooltips="1" connect="1" arrows="1" fold="1" page="1" pageScale="1" pageWidth="850" pageHeight="1100" math="0" shadow="0"><root><mxCell id="Az2YuZlxQGGdTSPu0Zam-0"/><mxCell id="Az2YuZlxQGGdTSPu0Zam-1" parent="Az2YuZlxQGGdTSPu0Zam-0"/><mxCell id="Az2YuZlxQGGdTSPu0Zam-2" value="Registration form" style="rounded=0;whiteSpace=wrap;html=1;fillColor=#dae8fc;strokeColor=#6c8ebf;" vertex="1" parent="Az2YuZlxQGGdTSPu0Zam-1"><mxGeometry x="240" y="40" width="276" height="60" as="geometry"/></mxCell><mxCell id="Az2YuZlxQGGdTSPu0Zam-3" value="First Name" style="rounded=0;whiteSpace=wrap;html=1;fillColor=#f8cecc;strokeColor=#b85450;" vertex="1" parent="Az2YuZlxQGGdTSPu0Zam-1"><mxGeometry x="240" y="120" width="120" height="40" as="geometry"/></mxCell><mxCell id="Az2YuZlxQGGdTSPu0Zam-4" value="Last Name" style="rounded=0;whiteSpace=wrap;html=1;fillColor=#f8cecc;strokeColor=#b85450;" vertex="1" parent="Az2YuZlxQGGdTSPu0Zam-1"><mxGeometry x="380" y="120" width="136" height="40" as="geometry"/></mxCell><mxCell id="Az2YuZlxQGGdTSPu0Zam-5" value="Email address" style="rounded=0;whiteSpace=wrap;html=1;fillColor=#d5e8d4;strokeColor=#82b366;" vertex="1" parent="Az2YuZlxQGGdTSPu0Zam-1"><mxGeometry x="238" y="190" width="280" height="60" as="geometry"/></mxCell><mxCell id="Az2YuZlxQGGdTSPu0Zam-6" value="Password" style="rounded=0;whiteSpace=wrap;html=1;fillColor=#d0cee2;strokeColor=#56517e;" vertex="1" parent="Az2YuZlxQGGdTSPu0Zam-1"><mxGeometry x="240" y="270" width="280" height="50" as="geometry"/></mxCell><mxCell id="Az2YuZlxQGGdTSPu0Zam-7" value="Register" style="rounded=0;whiteSpace=wrap;html=1;fillColor=#f5f5f5;strokeColor=#666666;fontColor=#333333;" vertex="1" parent="Az2YuZlxQGGdTSPu0Zam-1"><mxGeometry x="318" y="340" width="120" height="30" as="geometry"/></mxCell></root></mxGraphModel></diagram></mxfile>